<?xml version="1.0" encoding="UTF-8"?>
<svg width="24px" height="24px" viewBox="0 0 24 24" version="1.1" xmlns="http://www.w3.org/2000/svg" xmlns:xlink="http://www.w3.org/1999/xlink">
    <!-- Generator: Sketch 63.1 (92452) - https://sketch.com -->
    <title>icon/VOC/feedback smile</title>
    <desc>Created with Sketch.</desc>
    <defs>
        <path d="M12,2 C17.5138462,2 22,6.48615385 22,12 C22,17.5138462 17.5138462,22 12,22 C6.48615385,22 2,17.5138462 2,12 C2,6.48615385 6.48615385,2 12,2 Z M12,2.92307692 C6.99507692,2.92307692 2.92307692,6.99507692 2.92307692,12 C2.92307692,17.0049231 6.99507692,21.0769231 12,21.0769231 C17.0049231,21.0769231 21.0769231,17.0049231 21.0769231,12 C21.0769231,6.99507692 17.0049231,2.92307692 12,2.92307692 Z M7.46852989,12.9561718 L7.54939392,12.9660559 C7.71069309,13.0004117 7.84141109,13.1182098 7.89230769,13.2750769 C8.41897998,14.9177795 9.9469335,16.0317775 11.672,16.0307692 L11.672,16.0307692 L12.328,16.0307692 C14.0525699,16.0320347 15.5803691,14.9188954 16.1076923,13.2769231 C16.1454592,13.1604612 16.2279522,13.0637772 16.337017,13.0081484 C16.4460818,12.9525196 16.5727807,12.9425047 16.6892308,12.9803077 C16.9307953,13.0589715 17.0633684,13.3180667 16.9858462,13.56 C16.3363443,15.5837292 14.4534009,16.9556981 12.328,16.953848 L12.328,16.953848 L11.672,16.953848 C9.54659909,16.9556981 7.66365568,15.5837292 7.01415385,13.56 C6.96325724,13.4031329 6.99991443,13.2310288 7.110317,13.1085175 C7.22071957,12.9860062 7.38809474,12.9317001 7.54939392,12.9660559 Z M8.49784615,9.15261538 C9.00764746,9.15261538 9.42092308,9.565891 9.42092308,10.0756923 C9.42092308,10.5854936 9.00764746,10.9987692 8.49784615,10.9987692 C8.25303093,10.9987692 8.01824271,10.9015168 7.8451322,10.7284063 C7.6720217,10.5552958 7.57476923,10.3205075 7.57476923,10.0756923 C7.57476923,9.565891 7.98804485,9.15261538 8.49784615,9.15261538 Z M15.5021538,9.15261538 C16.0119552,9.15261538 16.4252308,9.565891 16.4252308,10.0756923 C16.4252308,10.5854936 16.0119552,10.9987692 15.5021538,10.9987692 C15.2573386,10.9987692 15.0225504,10.9015168 14.8494399,10.7284063 C14.6763294,10.5552958 14.5790769,10.3205075 14.5790769,10.0756923 C14.5790769,9.565891 14.9923525,9.15261538 15.5021538,9.15261538 Z" id="path-1"/>
    </defs>
    <g id="icon/VOC/feedback-smile" stroke="none" stroke-width="1" fill="none" fill-rule="evenodd">
        <mask id="mask-2" fill="white">
            <use xlink:href="#path-1"/>
        </mask>
        <use id="icon/feedback" fill="#000000" fill-rule="nonzero" xlink:href="#path-1"/>
        <g id="color/black" mask="url(#mask-2)" fill="#000000">
            <g transform="translate(-88.000000, -88.000000)" id="Rectangle">
                <rect x="0" y="0" width="200" height="200"/>
            </g>
        </g>
    </g>
</svg>