<svg xmlns="http://www.w3.org/2000/svg" xmlns:xlink="http://www.w3.org/1999/xlink" width="16px" height="16px" viewBox="0 0 16 16" version="1.1">
    <!-- Generator: Sketch 63.1 (92452) - https://sketch.com -->
    <title>icon/selector/checkbox selected</title>
    <desc>Created with Sketch.</desc>
    <defs>
        <path d="M13,0 C14.6568542,-3.04359188e-16 16,1.34314575 16,3 L16,13 C16,14.6568542 14.6568542,16 13,16 L3,16 C1.34314575,16 2.02906125e-16,14.6568542 0,13 L0,3 C-2.02906125e-16,1.34314575 1.34314575,3.04359188e-16 3,0 L13,0 Z M12.48,4 L6.4,10.08 L3.52,7.2 L2.4,8.32 L6.4,12.32 L13.6,5.12 L12.48,4 Z" id="path-1"/>
    </defs>
    <g id="icon/selector/checkbox-selected" stroke="none" stroke-width="1" fill="none" fill-rule="evenodd">
        <mask id="mask-2" fill="white">
            <use xlink:href="#path-1"/>
        </mask>
        <use fill="#1976a1" fill-rule="nonzero" xlink:href="#path-1"/>
        <g id="color/black" mask="url(#mask-2)" fill="#1976a1">
            <g transform="translate(-42.000000, -42.000000)" id="Rectangle">
                <rect x="0" y="0" width="100" height="100"/>
            </g>
        </g>
    </g>
</svg>